HIERARCHY
ROOT ui
{
	 OFFSET 0 0 0
	 CHANNELS 3 XPosition YPosition Z Position
	 EndSite
	 {
	 OFFSET 0 -1 0
	 }
}
ROOT li
{
	 OFFSET 0 0 0
	 CHANNELS 3 XPosition YPosition Z Position
	 EndSite
	 {
	 OFFSET 0 -1 0
	 }
}
ROOT ul
{
	 OFFSET 0 0 0
	 CHANNELS 3 XPosition YPosition Z Position
	 EndSite
	 {
	 OFFSET 0 -1 0
	 }
}
ROOT ll
{
	 OFFSET 0 0 0
	 CHANNELS 3 XPosition YPosition Z Position
	 EndSite
	 {
	 OFFSET 0 -1 0
	 }
}
ROOT tt
{
	 OFFSET 0 0 0
	 CHANNELS 3 XPosition YPosition Z Position
	 EndSite
	 {
	 OFFSET 0 -1 0
	 }
}
ROOT tb
{
	 OFFSET 0 0 0
	 CHANNELS 3 XPosition YPosition Z Position
	 EndSite
	 {
	 OFFSET 0 -1 0
	 }
}
ROOT td
{
	 OFFSET 0 0 0
	 CHANNELS 3 XPosition YPosition Z Position
	 EndSite
	 {
	 OFFSET 0 -1 0
	 }
}
ROOT v
{
	 OFFSET 0 0 0
	 CHANNELS 3 XPosition YPosition Z Position
	 EndSite
	 {
	 OFFSET 0 -1 0
	 }
}
ROOT bn
{
	 OFFSET 0 0 0
	 CHANNELS 3 XPosition YPosition Z Position
	 EndSite
	 {
	 OFFSET 0 -1 0
	 }
}
MOTION
Frames: 27
Frame Time: 0.002
0.018286138534545898	-0.0044138641357421874	0		0.4833157348632813	-2.347412841796875	0		-1.0925677490234376	0.013717207908630371	0		-0.5381118774414062	-2.3005771484375	0		2.585401611328125	-0.2217102813720703	0		4.06767724609375	-0.35124600219726565	0		5.24313818359375	-0.19029624938964843	0		5.9366103515625	0.49254693603515626	0		-0.35627557373046875	5.88264501953125	0		
-0.019503688812255858	0.002122740030288696	0		0.45959033203125	-2.34206298828125	0		-1.0814791259765626	0.011506768226623535	0		-0.5290741577148438	-2.31173876953125	0		2.631784423828125	-0.20430364990234376	0		4.0601279296875	-0.3290067138671875	0		5.2553056640625	-0.18730438232421875	0		5.94035400390625	0.50832080078125	0		-0.37529827880859373	5.88689404296875	0		
0.017658456802368164	0.00356011700630188	0		0.48741607666015624	-2.368478759765625	0		-1.115281005859375	0.015939797401428223	0		-0.526841796875	-2.30981005859375	0		2.65240234375	-0.17154747009277344	0		4.079997802734375	-0.34820401000976564	0		5.27831591796875	-0.19651170349121094	0		5.94689990234375	0.513536376953125	0		-0.35441943359375	5.88055322265625	0		
-0.008185091972351075	0.003895632982254028	0		0.4859583740234375	-2.34548095703125	0		-1.0771314697265626	0.015324677467346191	0		-0.5337333374023437	-2.316760986328125	0		2.698757568359375	-0.15818991088867188	0		4.0944326171875	-0.3293511962890625	0		5.27260498046875	-0.18734068298339843	0		5.94700927734375	0.5137134399414063	0		-0.23427360534667968	5.888771484375	0		
0.013923590660095214	-4.75259006023407E-4	0		0.45817562866210937	-2.3451220703125	0		-1.1149591064453126	0.015797361373901368	0		-0.5396198120117187	-2.32373828125	0		2.698347412109375	-0.12918003845214843	0		4.10944775390625	-0.34054061889648435	0		5.28664599609375	-0.19649296569824218	0		5.94226025390625	0.5347540893554688	0		-0.24937651062011718	5.87793017578125	0		
-0.005950965881347656	-0.0042558622360229495	0		0.534881103515625	-2.3812890625	0		-1.1147784423828124	0.015710862159729003	0		-0.5465028076171875	-2.33071435546875	0		2.7097451171875	-0.11436727142333984	0		4.10072119140625	-0.33441705322265625	0		5.28678662109375	-0.1994797821044922	0		5.94080859375	0.5088976745605469	0		-0.368432861328125	5.86857177734375	0		
-0.008803728103637696	-0.007297891139984131	0		0.4940888671875	-2.3817783203125	0		-1.12857275390625	0.016813688278198242	0		-0.5374447021484375	-2.341934326171875	0		2.754960693359375	-0.11306856536865234	0		4.1366953125	-0.3499708251953125	0		5.30493408203125	-0.202761962890625	0		5.94094384765625	0.5088710632324219	0		-0.3842954711914062	5.8697119140625	0		
0.0015353660583496095	0.0024552369117736817	0		0.5502843627929688	-2.383681396484375	0		-1.11739208984375	0.015544465065002441	0		-0.5372293701171875	-2.342040771484375	0		2.750446044921875	-0.09307831573486328	0		4.139412109375	-0.31407162475585937	0		5.31721728515625	-0.19699394226074218	0		5.954859375	0.5463623046875	0		-0.231918212890625	5.884419921875	0		
-0.0023210930824279787	-0.0016048840284347535	0		0.49451708984375	-2.38199169921875	0		-1.128176025390625	0.01657882499694824	0		-0.516292236328125	-2.36146142578125	0		2.812841796875	-0.08007511901855469	0		4.14018310546875	-0.34418017578125	0		5.31436181640625	-0.20104177856445313	0		5.93636767578125	0.531288330078125	0		-0.3508785400390625	5.87601220703125	0		
-0.007044895172119141	0.0033332209587097167	0		0.5337079467773438	-2.383684326171875	0		-1.1210447998046875	0.01134294605255127	0		-0.5371239624023437	-2.364293701171875	0		2.817131591796875	-0.0742600326538086	0		4.1516162109375	-0.32846368408203125	0		5.33153515625	-0.20340696716308593	0		5.95634814453125	0.5078976440429688	0		-0.2174000701904297	5.89496435546875	0		
-0.009880977630615234	2.2898100316524507E-4	0		0.5147864990234375	-2.39255810546875	0		-1.1149105224609375	0.006109939098358154	0		-0.5032807922363282	-2.38992724609375	0		2.83852294921875	-0.06171175003051758	0		4.16257763671875	-0.34576904296875	0		5.3227431640625	-0.2034270477294922	0		5.94151904296875	0.508160888671875	0		-0.3494939575195313	5.87471630859375	0		
-0.004742566108703613	-0.005003880977630615	0		0.5508283081054688	-2.404237548828125	0		-1.1106427001953125	0.009893842697143555	0		-0.583112060546875	-2.39193701171875	0		2.81598046875	-0.044552978515625	0		4.18014501953125	-0.32119003295898435	0		5.340908203125	-0.20686300659179688	0		5.94533837890625	0.525024169921875	0		-0.3833482360839844	5.869044921875	0		
-0.0064094910621643065	0.0028492939472198487	0		0.5011528625488281	-2.395697265625	0		-1.1013250732421875	0.016595157623291015	0		-0.523201416015625	-2.41296923828125	0		2.84002294921875	-0.05708745193481445	0		4.18605859375	-0.342472412109375	0		5.3393408203125	-0.19204058837890625	0		5.94549365234375	0.52466357421875	0		-0.3490290222167969	5.8733828125	0		
0.019817014694213868	0.0022880640029907225	0		0.5492147216796875	-2.406577880859375	0		-1.1120657958984375	0.018574483871459962	0		-0.542276611328125	-2.432876953125	0		2.844467041015625	-0.04235563278198242	0		4.2084697265625	-0.33000970458984374	0		5.35833642578125	-0.20854061889648437	0		5.9569658203125	0.5065634460449219	0		-0.3487546081542969	5.8731982421875	0		
-0.005935624122619629	0.0024632320404052734	0		0.5194124145507812	-2.408349609375	0		-1.1077781982421875	0.02132746124267578	0		-0.4874046630859375	-2.4578603515625	0		2.8736220703125	-0.048996597290039065	0		4.19677001953125	-0.3260735168457031	0		5.3626796875	-0.2018452453613281	0		5.94583203125	0.5238240966796875	0		-0.22931202697753905	5.8822880859375	0		
0.013224648475646974	-0.005020101070404053	0		0.5435794677734375	-2.413909912109375	0		-1.115614990234375	0.014242904663085938	0		-0.5614151611328125	-2.474998779296875	0		2.88886865234375	-0.050448646545410154	0		4.1970302734375	-0.3263214111328125	0		5.372708984375	-0.21824594116210938	0		5.9423515625	0.5061939086914062	0		-0.34717144775390624	5.87078125	0		
-4.621169865131378E-4	-0.003040273904800415	0		0.5018041687011718	-2.4165302734375	0		-1.1072318115234374	0.02091420555114746	0		-0.49156292724609374	-2.5042216796875	0		2.86608154296875	-0.05536151504516602	0		4.22697607421875	-0.3500068359375	0		5.36496240234375	-0.2203952941894531	0		5.93125537109375	0.5251541137695312	0		-0.3799242858886719	5.86503857421875	0		
0.02888096809387207	-6.908959746360779E-4	0		0.5321181640625	-2.4151982421875	0		-1.10287158203125	0.024630636215209962	0		-0.521445068359375	-2.51601708984375	0		2.88238232421875	-0.05584167098999023	0		4.22981005859375	-0.31329718017578123	0		5.3773779296875	-0.21283369445800782	0		5.94643798828125	0.5224364624023438	0		-0.33134588623046873	5.88111474609375	0		
-7.092199921607971E-4	0.005499619960784912	0		0.554314453125	-2.42375732421875	0		-1.112535888671875	0.025536144256591797	0		-0.5024362182617188	-2.537529052734375	0		2.872544921875	-0.06694514465332031	0		4.19878662109375	-0.33709991455078125	0		5.37769775390625	-0.21308892822265624	0		5.9388212890625	0.5222666015625	0		-0.21286427307128905	5.89017138671875	0		
-0.004434372901916504	0.0013081990480422973	0		0.5485519409179688	-2.43091845703125	0		-1.1213038330078124	0.01841453742980957	0		-0.519370361328125	-2.55653271484375	0		2.866791259765625	-0.07310081481933593	0		4.2350869140625	-0.3398585205078125	0		5.382943359375	-0.21939736938476562	0		5.9282685546875	0.5066649169921875	0		-0.21254588317871093	5.88992138671875	0		
-0.0022125699520111086	-0.0069766130447387695	0		0.5458516845703125	-2.435126953125	0		-1.1209666748046876	0.01814863586425781	0		-0.46434945678710937	-2.580583984375	0		2.8610576171875	-0.07824730682373048	0		4.2025458984375	-0.33160614013671874	0		5.378369140625	-0.21353895568847656	0		5.94189453125	0.4781537780761719	0		-0.3455596923828125	5.86958154296875	0		
-0.006803977012634277	-0.0021684141159057616	0		0.53116650390625	-2.439166015625	0		-1.1206309814453126	0.017869348526000976	0		-0.5151727905273438	-2.5941181640625	0		2.85712158203125	-0.09741001892089844	0		4.22810009765625	-0.317170654296875	0		5.37870849609375	-0.2137251739501953	0		5.93428955078125	0.47812063598632815	0		-0.36421942138671876	5.87558642578125	0		
0.0014955459833145143	-0.004551529884338379	0		0.5653414916992188	-2.45391064453125	0		-1.1071455078125	0.02838985061645508	0		-0.48420989990234375	-2.623839599609375	0		2.8554384765625	-0.09858992767333985	0		4.22213427734375	-0.33826251220703124	0		5.383912109375	-0.22295245361328125	0		5.9345234375	0.47787161254882815	0		-0.19764151000976563	5.89992138671875	0		
-0.003114758014678955	2.490459978580475E-4	0		0.5636976928710937	-2.456136962890625	0		-1.10277197265625	0.03203096389770508	0		-0.46816659545898437	-2.648350830078125	0		2.8495439453125	-0.11369461059570313	0		4.23877490234375	-0.316649169921875	0		5.3873642578125	-0.21411935424804687	0		5.93475	0.47768704223632813	0		-0.2116425323486328	5.88884716796875	0		
-0.007741281032562256	0.005049784183502198	0		0.5839508666992187	-2.465673583984375	0		-1.1024715576171875	0.03172361564636231	0		-0.4521212158203125	-2.67286328125	0		2.843635009765625	-0.12878146362304688	0		4.2138603515625	-0.33241714477539064	0		5.3876728515625	-0.21420820617675781	0		5.93496435546875	0.477567626953125	0		-0.21252497863769532	5.88958447265625	0		
-0.002531229019165039	-2.8815901279449465E-4	0		0.564173095703125	-2.476631103515625	0		-1.102190673828125	0.031414331436157225	0		-0.44422222900390623	-2.70725830078125	0		2.849807373046875	-0.1370234375	0		4.2141552734375	-0.33252142333984375	0		5.393833984375	-0.2233519592285156	0		5.93776318359375	0.43416036987304685	0		-0.3788385009765625	5.86468212890625	0		
-0.005312940120697021	-0.003505949020385742	0		0.57237939453125	-2.48798095703125	0		-1.082847900390625	0.03683671951293945	0		-0.42822067260742186	-2.733762451171875	0		2.806864501953125	-0.15155197143554688	0		4.2392138671875	-0.347961181640625	0		5.397189453125	-0.21743161010742187	0		5.9416171875	0.4513148193359375	0		-0.3627095031738281	5.8721767578125	0		
